<svg xmlns="http://www.w3.org/2000/svg" viewBox="0 0 520 520" fill="none">
  <defs>
    <linearGradient id="bg" x1="0" y1="0" x2="1" y2="1">
      <stop offset="0%" stop-color="#10213F"/>
      <stop offset="100%" stop-color="#1B45CC"/>
    </linearGradient>
    <linearGradient id="hair" x1="0" y1="0" x2="1" y2="1">
      <stop offset="0%" stop-color="#0B1730"/>
      <stop offset="100%" stop-color="#1A3050"/>
    </linearGradient>
    <linearGradient id="skin" x1="0" y1="0" x2="1" y2="1">
      <stop offset="0%" stop-color="#F5D2C0"/>
      <stop offset="100%" stop-color="#E8B89C"/>
    </linearGradient>
  </defs>
  <rect width="520" height="520" rx="40" fill="url(#bg)"/>
  <circle cx="260" cy="190" r="110" fill="url(#skin)"/>
  <path d="M158 208c6-63 55-110 112-110 68 0 116 48 118 111-17-15-34-22-51-22-28 0-42 20-77 20s-53-20-81-20c-16 0-31 4-45 21Z" fill="url(#hair)"/>
  <path d="M172 240c0-55 39-98 88-98s88 43 88 98c0 24-10 46-26 63-17 18-39 27-62 27s-45-9-62-27c-16-17-26-39-26-63Z" fill="url(#skin)"/>
  <path d="M215 285c12 10 25 15 45 15s33-5 45-15" stroke="#8D5C48" stroke-width="8" stroke-linecap="round"/>
  <path d="M190 327c22-26 45-39 70-39s48 13 70 39v110H190V327Z" fill="#EAF3FF"/>
  <path d="M200 262c-16-34-15-68 2-91 14-18 35-27 58-27 22 0 44 9 58 27 17 23 18 57 2 91-16-29-29-41-60-41s-44 12-60 41Z" fill="url(#hair)"/>
  <circle cx="232" cy="242" r="8" fill="#1A3050"/>
  <circle cx="288" cy="242" r="8" fill="#1A3050"/>
  <path d="M246 258c4 6 10 9 14 9s10-3 14-9" stroke="#8D5C48" stroke-width="6" stroke-linecap="round"/>
  <rect x="210" y="346" width="100" height="120" rx="18" fill="#4A9EE8"/>
  <rect x="238" y="330" width="44" height="40" rx="16" fill="#EAF3FF"/>
  <path d="M165 498h190" stroke="#7AD3FF" stroke-width="6" stroke-linecap="round" opacity="0.8"/>
</svg>