<svg xmlns="http://www.w3.org/2000/svg" viewBox="0 0 1200 900" fill="none">
  <defs>
    <linearGradient id="bg" x1="0" y1="0" x2="1" y2="1">
      <stop offset="0%" stop-color="#F5F8FF"/>
      <stop offset="100%" stop-color="#DDEAFF"/>
    </linearGradient>
    <linearGradient id="panel" x1="0" y1="0" x2="1" y2="1">
      <stop offset="0%" stop-color="#163A71"/>
      <stop offset="100%" stop-color="#2C74D7"/>
    </linearGradient>
    <linearGradient id="accent" x1="0" y1="0" x2="1" y2="1">
      <stop offset="0%" stop-color="#7AD3FF"/>
      <stop offset="100%" stop-color="#4A9EE8"/>
    </linearGradient>
  </defs>
  <rect width="1200" height="900" rx="48" fill="url(#bg)"/>
  <circle cx="965" cy="150" r="120" fill="#B9D6FF" opacity="0.55"/>
  <circle cx="190" cy="690" r="150" fill="#CDE6FF" opacity="0.65"/>
  <rect x="118" y="118" width="964" height="664" rx="34" fill="#FFFFFF" stroke="#CFE0F5"/>
  <rect x="156" y="158" width="888" height="94" rx="24" fill="url(#panel)"/>
  <rect x="186" y="188" width="240" height="22" rx="11" fill="#FFFFFF" opacity="0.9"/>
  <rect x="186" y="224" width="410" height="14" rx="7" fill="#D9E8FF" opacity="0.92"/>
  <rect x="186" y="304" width="340" height="250" rx="26" fill="#F7FBFF" stroke="#DCE8F7"/>
  <rect x="556" y="304" width="118" height="250" rx="26" fill="#0F1D3A"/>
  <rect x="704" y="304" width="340" height="250" rx="26" fill="#F7FBFF" stroke="#DCE8F7"/>
  <rect x="216" y="340" width="172" height="18" rx="9" fill="#163A71" opacity="0.18"/>
  <rect x="216" y="372" width="270" height="18" rx="9" fill="#163A71" opacity="0.12"/>
  <rect x="216" y="404" width="238" height="18" rx="9" fill="#163A71" opacity="0.12"/>
  <rect x="216" y="468" width="128" height="64" rx="18" fill="#D9E8FF"/>
  <rect x="356" y="468" width="128" height="64" rx="18" fill="#EAF3FF"/>
  <rect x="588" y="348" width="32" height="166" rx="16" fill="url(#accent)"/>
  <rect x="590" y="456" width="28" height="58" rx="14" fill="#FFFFFF" opacity="0.88"/>
  <circle cx="788" cy="372" r="22" fill="#4A9EE8"/>
  <circle cx="848" cy="372" r="22" fill="#7AD3FF"/>
  <circle cx="908" cy="372" r="22" fill="#163A71"/>
  <rect x="764" y="426" width="220" height="18" rx="9" fill="#163A71" opacity="0.16"/>
  <rect x="764" y="460" width="170" height="18" rx="9" fill="#163A71" opacity="0.12"/>
  <rect x="764" y="494" width="250" height="18" rx="9" fill="#163A71" opacity="0.12"/>
  <rect x="156" y="620" width="888" height="120" rx="24" fill="#F7FBFF" stroke="#DCE8F7"/>
  <rect x="190" y="648" width="204" height="20" rx="10" fill="#163A71" opacity="0.16"/>
  <rect x="190" y="684" width="520" height="16" rx="8" fill="#163A71" opacity="0.10"/>
  <rect x="190" y="712" width="410" height="16" rx="8" fill="#163A71" opacity="0.10"/>
  <rect x="822" y="646" width="170" height="70" rx="18" fill="url(#panel)"/>
  <path d="M865 680l18 18 33-38" stroke="#FFFFFF" stroke-width="12" stroke-linecap="round" stroke-linejoin="round"/>
</svg>