<svg xmlns="http://www.w3.org/2000/svg" viewBox="0 0 1200 900" fill="none">
  <defs>
    <linearGradient id="bg" x1="0" y1="0" x2="1" y2="1">
      <stop offset="0%" stop-color="#0F1D3A"/>
      <stop offset="100%" stop-color="#163A71"/>
    </linearGradient>
    <linearGradient id="card" x1="0" y1="0" x2="1" y2="1">
      <stop offset="0%" stop-color="#EEF5FF"/>
      <stop offset="100%" stop-color="#DCEBFF"/>
    </linearGradient>
    <linearGradient id="accent" x1="0" y1="0" x2="1" y2="1">
      <stop offset="0%" stop-color="#4A9EE8"/>
      <stop offset="100%" stop-color="#7AD3FF"/>
    </linearGradient>
  </defs>
  <rect width="1200" height="900" rx="48" fill="url(#bg)"/>
  <circle cx="210" cy="170" r="110" fill="#2C74D7" opacity="0.35"/>
  <circle cx="980" cy="740" r="140" fill="#4A9EE8" opacity="0.22"/>
  <rect x="120" y="116" width="960" height="668" rx="34" fill="#10213F" stroke="#35507E"/>
  <rect x="158" y="154" width="220" height="592" rx="28" fill="#0B1730"/>
  <rect x="410" y="154" width="632" height="592" rx="28" fill="url(#card)"/>
  <rect x="184" y="190" width="148" height="18" rx="9" fill="#DCEBFF" opacity="0.9"/>
  <rect x="184" y="228" width="118" height="12" rx="6" fill="#7A97C2"/>
  <rect x="184" y="266" width="138" height="12" rx="6" fill="#7A97C2"/>
  <rect x="184" y="304" width="160" height="12" rx="6" fill="#7A97C2"/>
  <rect x="184" y="352" width="148" height="52" rx="16" fill="#163A71"/>
  <rect x="184" y="420" width="148" height="52" rx="16" fill="#1C3E78"/>
  <rect x="184" y="488" width="148" height="52" rx="16" fill="#1B45CC"/>
  <rect x="450" y="194" width="248" height="24" rx="12" fill="#163A71" opacity="0.18"/>
  <rect x="450" y="236" width="320" height="14" rx="7" fill="#163A71" opacity="0.10"/>
  <rect x="450" y="260" width="270" height="14" rx="7" fill="#163A71" opacity="0.10"/>
  <rect x="450" y="314" width="190" height="162" rx="24" fill="#FFFFFF" stroke="#CFE0F5"/>
  <rect x="662" y="314" width="328" height="162" rx="24" fill="#FFFFFF" stroke="#CFE0F5"/>
  <rect x="450" y="500" width="540" height="178" rx="24" fill="#FFFFFF" stroke="#CFE0F5"/>
  <rect x="478" y="344" width="132" height="16" rx="8" fill="#163A71" opacity="0.18"/>
  <rect x="478" y="374" width="100" height="92" rx="20" fill="url(#accent)"/>
  <path d="M512 401l16 16 28-32" stroke="#FFFFFF" stroke-width="10" stroke-linecap="round" stroke-linejoin="round"/>
  <rect x="690" y="344" width="252" height="16" rx="8" fill="#163A71" opacity="0.18"/>
  <rect x="690" y="374" width="260" height="18" rx="9" fill="#163A71" opacity="0.12"/>
  <rect x="690" y="404" width="218" height="18" rx="9" fill="#163A71" opacity="0.12"/>
  <rect x="478" y="534" width="452" height="20" rx="10" fill="#163A71" opacity="0.16"/>
  <rect x="478" y="572" width="394" height="16" rx="8" fill="#163A71" opacity="0.10"/>
  <rect x="478" y="602" width="360" height="16" rx="8" fill="#163A71" opacity="0.10"/>
  <rect x="478" y="632" width="302" height="16" rx="8" fill="#163A71" opacity="0.10"/>
  <rect x="906" y="544" width="56" height="56" rx="16" fill="url(#bg)"/>
  <path d="M928 568h12M934 562v12" stroke="#FFFFFF" stroke-width="8" stroke-linecap="round"/>
</svg>